HIERARCHY
ROOT Hips
{
	OFFSET 0.000000 0.000000 0.000000 
	CHANNELS 6 Xposition Yposition Zposition Yrotation Zrotation Xrotation 
	JOINT Lumbar
	{
		OFFSET 0.000000 0.000000 0.000000 
		CHANNELS 3 Zrotation Xrotation Yrotation
		JOINT Neck
		{
			OFFSET 0.000000 0.445665 0.000000 
			CHANNELS 3 Zrotation Xrotation Yrotation
			End Site
			{
				OFFSET 0.000000 0.227535 0.000000 
			}
		}
		JOINT RightShoulder
		{
			OFFSET 0.019635 0.377685 0.194865 
			CHANNELS 3 Zrotation Xrotation Yrotation
			JOINT RightElbow
			{
				OFFSET 0.000000 -0.243375 0.000000 
				CHANNELS 2 Zrotation Yrotation
				JOINT RightWrist
				{
					OFFSET 0.000000 -0.264825 0.000000 
					CHANNELS 2 Zrotation Xrotation
					End Site
					{
						OFFSET 0.006600 -0.176220 0.000990 
					}
				}
			}
		}
		JOINT LeftShoulder
		{
			OFFSET 0.019635 0.377685 -0.194865 
			CHANNELS 3 Zrotation Xrotation Yrotation
			JOINT LeftElbow
			{
				OFFSET 0.000000 -0.243375 0.000000 
				CHANNELS 2 Zrotation Yrotation
				JOINT LeftWrist
				{
					OFFSET 0.000000 -0.264825 0.000000 
					CHANNELS 2 Zrotation Xrotation
					End Site
					{
						OFFSET 0.006600 -0.176220 -0.000990 
					}
				}
			}
		}
	}
	JOINT RightHip
	{
		OFFSET 0.052140 -0.069960 0.075570 
		CHANNELS 3 Zrotation Xrotation Yrotation
		JOINT RightKnee
		{
			OFFSET 0.000000 -0.402270 0.000000 
			CHANNELS 1 Zrotation
			JOINT RightAnkle
			{
				OFFSET 0.000000 -0.404085 0.000000 
				CHANNELS 3 Zrotation Xrotation Yrotation
				End Site
				{
					OFFSET 0.204105 -0.089430 0.008415 
				}
			}
		}
	}
	JOINT LeftHip
	{
		OFFSET 0.052140 -0.069960 -0.075570 
		CHANNELS 3 Zrotation Xrotation Yrotation
		JOINT LeftKnee
		{
			OFFSET 0.000000 -0.402270 0.000000 
			CHANNELS 1 Zrotation
			JOINT LeftAnkle
			{
				OFFSET 0.000000 -0.404085 0.000000 
				CHANNELS 3 Zrotation Xrotation Yrotation
				End Site
				{
					OFFSET 0.204105 -0.089430 -0.008415 
				}
			}
		}
	}
}
MOTION
Frames: 20
Frame Time: 0.02
0 0.95578 -1e-05 191.47296 0 -2.99728 9.06063 4.32534 -2.37436 -29.37749 2.07173 -3.90464 38.67574 -11.6179 4.22531 11.79727 81.52771 -1.95977 -4.72743 51.46291 5.99894 -14.7316 19.53633 -99.06446 -16.63804 8.59406 -4.52325 6.37626 9.77612 -4.41543 0.74912 -3.89597 -5.56482 2.90913 -1.04735 -13.37833 -16.91106 9.97917 9.18302 13.60843
0.0005 0.95522 0.00183 191.91006 0 -3.18992 8.91458 4.59019 -2.82398 -28.93831 1.97802 -3.87715 37.30848 -11.78699 2.29826 11.22608 81.425 -1.95711 -4.34555 50.15583 6.1586 -15.32148 19.07051 -97.75981 -15.08044 8.11423 -4.56089 6.4804 9.48918 -4.40918 0.81908 -3.90973 -5.59718 3.81745 -0.7748 -12.85638 -19.06784 10.12718 9.15347 14.21795
0.00099 0.95465 0.00367 192.34303 0 -3.38151 8.76978 4.85311 -3.27077 -28.50077 1.88689 -3.84865 35.94219 -11.95724 0.36649 10.65643 81.31893 -1.95523 -3.96503 48.84503 6.31574 -15.89251 18.60121 -96.45541 -13.53086 7.63448 -4.59865 6.58331 9.20467 -4.40342 0.88903 -3.92355 -5.6295 4.71385 -0.50339 -12.34269 -21.2007 10.27305 9.12403 14.82099
0.00144 0.95409 0.00554 192.76405 0 -3.5714 8.62899 5.11194 -3.70969 -28.06772 1.80469 -3.81609 34.57325 -12.13413 -1.59198 10.08672 81.19992 -1.95563 -3.5871 47.5172 6.46467 -16.43331 18.11707 -95.14308 -11.99654 7.15221 -4.63839 6.68344 8.92609 -4.3971 0.95881 -3.93737 -5.66042 5.57403 -0.23349 -11.86612 -23.26469 10.41294 9.09566 15.40574
0.0021 0.9535 0.00726 193.24871 0 -3.77102 8.46752 5.39366 -4.18921 -27.61359 1.67467 -3.80534 33.22655 -12.2763 -3.39589 9.51658 81.15122 -1.94295 -3.19651 46.29233 6.65745 -17.18209 17.71585 -93.87722 -10.37943 6.68548 -4.669 6.79963 8.6149 -4.3908 1.0285 -3.95074 -5.69686 6.62919 0.04491 -11.20392 -25.70041 10.58587 9.06271 16.08946
0.00231 0.95299 0.00929 193.59806 0 -3.94937 8.34954 5.62584 -4.58311 -27.20267 1.64625 -3.7483 31.82857 -12.49145 -5.53378 8.94844 80.95269 -1.95864 -2.83238 44.84226 6.75706 -17.45766 17.13672 -92.51133 -8.94036 6.18488 -4.71796 6.88085 8.37379 -4.3865 1.09897 -3.96537 -5.7229 7.26881 0.30469 -10.9275 -27.34281 10.68783 9.03876 16.56176
0.00124 0.95269 0.01211 193.57168 0 -4.07626 8.35602 5.7299 -4.73617 -26.91903 1.90472 -3.5586 30.29142 -12.92371 -8.6115 8.36586 80.32981 -2.04986 -2.53977 42.77961 6.59496 -16.65301 16.05789 -90.84783 -7.96027 5.58682 -4.82879 6.87178 8.32036 -4.37052 1.16791 -3.98129 -5.70879 6.75425 0.52149 -11.81263 -26.79929 10.59721 9.04609 16.45355
-0.00027 0.95248 0.01523 193.40902 0 -4.1806 8.40552 5.78259 -4.80348 -26.67699 2.26457 -3.32296 28.70044 -13.42677 -12.02505 7.7884 79.55726 -2.17012 -2.27382 40.4858 6.33979 -15.32379 14.80085 -89.08676 -7.16521 4.95543 -4.95621 6.82636 8.33885 -4.35963 1.23827 -3.99893 -5.68628 5.82121 0.71816 -13.07131 -25.45413 10.43431 9.06134 16.13123
-0.00156 0.95224 0.01823 193.31007 0 -4.29056 8.43264 5.85309 -4.91341 -26.41064 2.57466 -3.1111 27.13033 -13.8885 -15.27951 7.22078 78.85884 -2.27929 -1.99635 38.28874 6.12939 -14.09138 13.62806 -87.38038 -6.30503 4.34007 -5.0689 6.79331 8.32803 -4.35771 1.31058 -4.01721 -5.67497 5.08275 0.91887 -14.09665 -24.4708 10.30199 9.06876 15.90446
-0.00296 0.95195 0.02117 193.20377 0 -4.41956 8.47208 5.94642 -5.00906 -26.16807 2.90159 -2.88658 25.57506 -14.3909 -18.56728 6.6016 78.13332 -2.38039 -1.71652 36.12612 5.90704 -13.47402 12.43729 -85.62501 -5.36335 3.7178 -5.21197 6.77728 8.30239 -4.30853 1.37231 -4.02942 -5.63237 4.32419 1.14123 -15.38701 -23.49482 10.1788 9.09398 15.6848
-0.00424 0.95179 0.0243 193.08022 0 -4.50411 8.4956 5.98062 -5.11265 -25.88471 3.21591 -2.67806 23.9768 -14.8228 -21.85736 6.09141 77.43041 -2.50415 -1.44782 33.838 5.68937 -11.42919 11.2471 -83.95545 -4.63738 3.1061 -5.29565 6.71778 8.32544 -4.35854 1.45591 -4.05476 -5.65309 3.51006 1.31354 -16.21817 -22.31702 10.01999 9.08407 15.39984
-0.00511 0.95199 0.0279 192.94376 0 -4.4668 8.46864 5.85907 -5.27132 -25.4878 3.48459 -2.51991 22.26678 -15.06527 -25.14218 5.87727 76.81187 -2.69237 -1.20405 31.24939 5.49122 -5.77136 10.05439 -82.48589 -4.44377 2.49583 -5.21171 6.54208 8.45923 -4.68511 1.60391 -4.11516 -5.84947 2.62771 1.35416 -15.65442 -20.74425 9.77545 8.97464 14.98352
-0.00583 0.95233 0.03167 192.7941 0 -4.38644 8.42338 5.68077 -5.43852 -25.04642 3.7345 -2.38021 20.51699 -15.23029 -28.40438 5.77331 76.22413 -2.90076 -0.97045 28.54478 5.30413 1.33198 8.87712 -81.11699 -4.46396 1.90368 -5.06727 6.32486 8.64086 -5.11059 1.77298 -4.18881 -6.10992 1.70698 1.34483 -14.62187 -19.00205 9.4984 8.82965 14.50942
-0.0066 0.95259 0.03535 192.64996 0 -4.32884 8.38395 5.53175 -5.59399 -24.61964 3.98381 -2.23563 18.78879 -15.41577 -31.63107 5.62122 75.63171 -3.09399 -0.7317 25.89961 5.12243 7.91809 7.72423 -79.74233 -4.39832 1.32721 -4.9504 6.12996 8.8044 -5.48821 1.92962 -4.25698 -6.34208 0.81522 1.35728 -13.82778 -17.36004 9.23966 8.70137 14.06409
-0.00748 0.95289 0.0391 192.50431 0 -4.25686 8.35677 5.3661 -5.7802 -24.219 4.27514 -2.07545 17.04177 -15.66529 -35.06384 5.461 74.9941 -3.31341 -0.49601 23.21633 4.89302 13.97537 6.43325 -78.19701 -4.2922 0.65008 -4.8342 5.91916 8.95434 -5.87829 2.09865 -4.32313 -6.57115 -0.13936 1.3728 -12.94115 -15.59349 8.96386 8.57123 13.60098
-0.00808 0.95315 0.04273 192.35893 0 -4.205 8.29885 5.22242 -5.90481 -23.75154 4.47327 -1.95174 15.32785 -15.76292 -38.05631 5.34393 74.46065 -3.48283 -0.25612 20.59 4.76743 21.41713 5.43505 -77.03037 -4.31764 0.18551 -4.7015 5.73214 9.14389 -6.26586 2.24649 -4.39635 -6.8211 -0.96735 1.37046 -12.12891 -14.05484 8.71636 8.43617 13.1636
-0.00802 0.95328 0.04602 192.23128 0 -4.21841 8.16261 5.15216 -5.86356 -23.12017 4.41713 -1.93319 13.69312 -15.45312 -39.84386 5.3183 74.2016 -3.50767 -0.0012 18.13359 4.92114 32.7852 5.24993 -76.90311 -4.66301 0.31996 -4.54204 5.6208 9.42341 -6.62267 2.3339 -4.48824 -7.12093 -1.42851 1.32982 -11.65379 -13.20647 8.55936 8.29845 12.81592
-0.00767 0.95336 0.04918 192.10262 0 -4.25377 7.99529 5.10637 -5.75925 -22.42048 4.26765 -1.94942 12.09772 -14.99434 -41.1837 5.33244 74.04819 -3.48155 0.25822 15.74342 5.18022 45.40887 5.35837 -77.15105 -5.13082 0.66508 -4.36699 5.53509 9.74227 -6.97376 2.3987 -4.58638 -7.43834 -1.75982 1.27317 -11.26495 -12.59438 8.43163 8.15663 12.49654
-0.00743 0.95346 0.05239 191.96585 0 -4.27977 7.84079 5.05047 -5.68017 -21.74618 4.16129 -1.94387 10.49861 -14.60766 -42.72677 5.3288 73.85078 -3.4798 0.51518 13.33338 5.39472 57.15522 5.32768 -77.21504 -5.53575 0.90271 -4.19667 5.43783 10.04774 -7.32679 2.47165 -4.68002 -7.74228 -2.15421 1.22483 -10.82324 -11.86444 8.28783 8.01509 12.16213
-0.00729 0.95357 0.05565 191.86403 0 -4.30181 7.69184 4.9886 -5.61595 -21.0966 4.0512 -1.96351 8.83713 -14.19869 -44.28138 5.32763 73.63712 -3.4741 0.77372 10.87262 5.59596 70.24669 5.32112 -77.3371 -5.97872 1.18929 -4.03517 5.33839 10.33575 -7.68478 2.55411 -4.78094 -8.0707 -2.53498 1.17072 -10.42194 -11.16937 8.15404 7.87869 11.83403
